<svg version= "1.1"
    width="210" height="297"
    xmlns="http://www.w3.org/2000/svg">
	
	<!-- F1 flama fons groc -->
	<path 
	fill="#c3ca00" stroke="none" stroke-widht="0.26"
	d="m 145,49 c -2,0 -3,-2 -3,-3 0,-1 -1,-3 -2,-4 -1,-1 -1,-1 -1,-2 0,-1 1,-2 1,-2 0,0 0,2 1,3 2,1 4,1 4,1 0,0 8,2 8,2 0,0 1,1 1,2 0,1 1,2 -1,2 0,0 -2,-2 -3,-1 -2,0 -3,2 -5,2 z"
	/>

	<!-- F2 flama front taronja-->
	<path 
	fill="orange" stroke="none" stroke-widht="0.26"
	d="m  140,37 c 0,0 -1,2 -1,3 0,1 3,4 3,5 0,0 1,2 1,3 1,0 2,1 2,1 0,0 3,-3 3,-3 0,0 2,0 3,0 1,0 2,1 3,1 0,0 0,-3 0,-3 0,0 -11,-4 -11,-4 0,0 -1,0 -1,-1 0,0 -1,-2 -1,-2  z"
	/>
 
	<!-- F3 raig -->
    <path 
	fill="darkgrey" stroke="none" stroke-widht="0.38"
	d="m  120,39 c 0,-4 7,-14 21,-12 4,1 15,13 13,19 0,2 -2,-2 -5,-1 -1,0 -3,3 -4,3 -1,0 -1,-2 -2,-3 -1,-3 -2,0 -2,-4 0,-3 0,-7 -4,-9 -7,-4 -18,6 -18,6  z"
	/>
 

	<!-- F4 ampolla -->
    <path 
	fill="darkslategray" stroke="none" stroke-widht="0.33"
	d="m  122,32 -4,8 0,0 c -3,7 -9,2 -13,9 -8,15 -13,32 -20,47 -1,2 3,6 9,8 6,2 11,2 12,0 7,-16 14,-33 20,-47 3,-7 -5,-8 -2,-15 l 0,0 4,-8  z"
	/>

</svg>